<svg width="65" height="60" viewBox="0 0 65 60" fill="none" xmlns="http://www.w3.org/2000/svg">
<mask id="path-1-outside-1_189_1802" maskUnits="userSpaceOnUse" x="0.512205" y="0.302732" width="64" height="60" fill="black">
<rect fill="white" x="0.512205" y="0.302732" width="64" height="60"/>
<path fill-rule="evenodd" clip-rule="evenodd" d="M53.3554 40.1165C52.8766 43.8045 53.4375 51.7894 59.5122 54.2243C56.2795 55.1831 49.515 54.4782 46.9802 44.6826C44.4619 45.8264 41.6645 46.4635 38.7183 46.4635L25.7637 46.4635C14.718 46.4635 5.76365 37.5092 5.76365 26.4635L5.76365 25.3027C5.76365 14.257 14.718 5.30273 25.7636 5.30273L38.7183 5.30273C49.764 5.30273 58.7183 14.257 58.7183 25.3027L58.7183 26.4635C58.7183 31.7488 56.6681 36.5553 53.3196 40.1311L53.3554 40.1165Z"/>
</mask>
<path d="M59.5122 54.2243L60.934 59.0179C62.9743 58.4127 64.408 56.5824 64.5068 54.4564C64.6056 52.3305 63.3479 50.3751 61.3725 49.5833L59.5122 54.2243ZM53.3554 40.1165L58.3138 40.7602C58.543 38.9948 57.8162 37.2406 56.4056 36.1546C54.9949 35.0685 53.1132 34.8145 51.4651 35.4876L53.3554 40.1165ZM46.9802 44.6826L51.8208 43.43C51.4509 42.0004 50.4679 40.8074 49.1354 40.1709C47.8028 39.5344 46.2571 39.5194 44.9125 40.1301L46.9802 44.6826ZM25.7636 5.30273L25.7636 10.3027L25.7636 5.30273ZM38.7183 5.30273L38.7183 10.3027L38.7183 5.30273ZM58.7183 25.3027L53.7183 25.3027L58.7183 25.3027ZM58.7183 26.4635L63.7183 26.4635L58.7183 26.4635ZM53.3196 40.1311L49.67 36.7134C48.0638 38.4287 47.8687 41.031 49.2013 42.9665C50.5339 44.902 53.0345 45.6484 55.2099 44.76L53.3196 40.1311ZM61.3725 49.5833C60.2341 49.127 59.3402 48.0937 58.76 46.1857C58.1676 44.2377 58.1458 42.0544 58.3138 40.7602L48.397 39.4727C48.0862 41.8666 48.1054 45.5198 49.1925 49.0949C50.2918 52.7101 52.7156 56.8868 57.6519 58.8654L61.3725 49.5833ZM42.1397 45.9351C43.6858 51.9101 46.754 55.8391 50.6395 57.9024C54.3653 59.8808 58.2414 59.8165 60.934 59.0179L58.0904 49.4307C57.5503 49.5909 56.4278 49.6536 55.3294 49.0703C54.3909 48.572 52.8094 47.2506 51.8208 43.43L42.1397 45.9351ZM44.9125 40.1301C43.0306 40.9849 40.9371 41.4635 38.7183 41.4635L38.7183 51.4635C42.3918 51.4635 45.8931 50.6679 49.048 49.235L44.9125 40.1301ZM38.7183 41.4635L25.7637 41.4635L25.7637 51.4635L38.7183 51.4635L38.7183 41.4635ZM25.7637 41.4635C17.4794 41.4635 10.7636 34.7477 10.7636 26.4635L0.763648 26.4635C0.763647 40.2706 11.9566 51.4635 25.7637 51.4635L25.7637 41.4635ZM10.7636 26.4635L10.7636 25.3027L0.763648 25.3027L0.763648 26.4635L10.7636 26.4635ZM10.7636 25.3027C10.7636 17.0185 17.4794 10.3027 25.7636 10.3027L25.7636 0.302733C11.9565 0.302733 0.763649 11.4956 0.763648 25.3027L10.7636 25.3027ZM25.7636 10.3027L38.7183 10.3027L38.7183 0.302733L25.7636 0.302733L25.7636 10.3027ZM38.7183 10.3027C47.0025 10.3027 53.7183 17.0185 53.7183 25.3027L63.7183 25.3027C63.7183 11.4956 52.5254 0.302734 38.7183 0.302733L38.7183 10.3027ZM53.7183 25.3027L53.7183 26.4635L63.7183 26.4635L63.7183 25.3027L53.7183 25.3027ZM53.7183 26.4635C53.7183 30.4299 52.1853 34.0274 49.67 36.7134L56.9692 43.5487C61.1509 39.0832 63.7183 33.0677 63.7183 26.4635L53.7183 26.4635ZM51.4651 35.4876L51.4293 35.5022L55.2099 44.76L55.2457 44.7453L51.4651 35.4876Z" fill="#D9D9D9" mask="url(#path-1-outside-1_189_1802)"/>
</svg>