<svg width="56" height="58" viewBox="0 0 56 58" fill="none" xmlns="http://www.w3.org/2000/svg">
<path fill-rule="evenodd" clip-rule="evenodd" d="M35.0176 40.5824C31.4383 43.0648 27.0921 44.5196 22.4062 44.5196C10.1702 44.5196 0.250933 34.6003 0.250934 22.3643C0.250934 10.1282 10.1702 0.208982 22.4062 0.208983C34.6423 0.208983 44.5615 10.1282 44.5615 22.3643C44.5615 27.7494 42.6403 32.6857 39.4459 36.5253L46.7682 43.8475L55.0339 52.1131C56.2055 53.2846 56.2055 55.1841 55.0339 56.3557C53.8624 57.5273 51.9629 57.5273 50.7913 56.3557L42.5256 48.0901L35.0176 40.5824ZM38.8466 22.365C38.8466 31.4449 31.4859 38.8056 22.4061 38.8056C13.3262 38.8056 5.96552 31.4449 5.96552 22.365C5.96552 13.2852 13.3262 5.92448 22.4061 5.92448C31.4859 5.92448 38.8466 13.2852 38.8466 22.365Z" fill="#3B82F6"/>
</svg>