<svg width="62" height="60" viewBox="0 0 62 60" fill="none" xmlns="http://www.w3.org/2000/svg">
<path fill-rule="evenodd" clip-rule="evenodd" d="M40.1869 1.24094C39.2262 0.249196 37.6435 0.223969 36.6518 1.1846C35.66 2.14523 35.6348 3.72794 36.5954 4.71968L39.9107 8.14229L35.5293 12.3862L34.8818 11.7177L28.9949 5.64005C28.0342 4.64831 26.4515 4.62308 25.4598 5.58371C24.468 6.54434 24.4428 8.12705 25.4034 9.1188L29.551 13.4007L3.37226 38.7581C2.38052 39.7187 2.35529 41.3014 3.31592 42.2931L9.08823 48.2524L1.51231 55.5907C0.520565 56.5513 0.495336 58.134 1.45596 59.1257C2.41659 60.1175 3.99931 60.1427 4.99105 59.1821L12.567 51.8439L18.3393 57.8031C19.2999 58.7949 20.8826 58.8201 21.8744 57.8595L35.8616 44.3111L48.0531 32.5021L52.3468 36.9349C53.3074 37.9267 54.8902 37.9519 55.8819 36.9913C56.8736 36.0307 56.8989 34.4479 55.9382 33.4562L49.9052 27.2277L48.9871 26.2799L53.3685 22.0361L56.945 25.7284C57.9057 26.7202 59.4884 26.7454 60.4801 25.7848C61.4719 24.8242 61.4971 23.2415 60.5365 22.2497L55.2205 16.7616L45.2414 6.45926L40.1869 1.24094ZM39.008 15.9776L43.3894 11.7337L49.8897 18.4446L45.5084 22.6885L39.008 15.9776ZM14.419 46.5694L8.64672 40.6101L33.0297 16.9921L33.6772 17.6606L43.6563 27.963L44.5744 28.9107L40.369 32.9842L34.7293 27.1618C33.7687 26.1701 32.186 26.1449 31.1942 27.1055C30.2025 28.0661 30.1772 29.6488 31.1379 30.6406L36.6655 36.3472L29.4935 43.2942L23.9659 37.5875C23.0053 36.5958 21.4226 36.5706 20.4308 37.5312C19.4391 38.4918 19.4138 40.0745 20.3745 41.0663L26.0141 46.8886L20.1913 52.5287L14.419 46.5694Z" fill="#3B82F6"/>
</svg>